# xmcd
#
# Track frame offsets:
#	150
#	17233
#	34097
#	51058
#	67274
#	83766
#	98889
#	119674
#	139603
#	157510
#	173382
#	190293
#	213879
#	235068
#	261902
#	283616
#
# Disc length: 4051 seconds
#
# Revision: 0
# Processed by: cddbd v1.5.2PL0 Copyright (c) Steve Scherf et al.
# Submitted via: EasyCDDAExtractor 12.0.1.1
#
DISCID=d60fd110
DTITLE=Various Artist - Temple of Hip Hop
DYEAR=2007
DGENRE=Hip Hop
TTITLE0=Notorious B.I.G. - Get Money ft. Lil Cease and Lil Kim
TTITLE1=Never Again Family - Quarter till 4
TTITLE2=Xzibit - Two Killaz ft. Big Hutch
TTITLE3=Kon Artis - Bend a Corner
TTITLE4=Musza Mill - Political Soldiesr ft. Makaveli
TTITLE5=Bad Ass - 4 Much ft. others
TTITLE6=Snoop Dogg - Watcha Talkin' About ft. others
TTITLE7=Boo Yaa Tribe - Tell 'm Who Send Yo Ass
TTITLE8=Kurupt - What Dew You Mean
TTITLE9=Dr. Dre - Slice ft. Yella
TTITLE10=First Born - Caught in The Wind ft. Young Buck
TTITLE11=Ice T - Dog 'N' The Wax
TTITLE12=2Pac - Slip-n-slide ft. DMX and Xzibit
TTITLE13=2 Live Crew - Revelation
TTITLE14=Spyder D - Gangsta Wages
TTITLE15=Redman - Rollin' ft. KFAM and Keith Murray
EXTD=
EXTT0=
EXTT1=
EXTT2=
EXTT3=
EXTT4=
EXTT5=
EXTT6=
EXTT7=
EXTT8=
EXTT9=
EXTT10=
EXTT11=
EXTT12=
EXTT13=
EXTT14=
EXTT15=
PLAYORDER=
